<?xml version="1.0" standalone="no"?>
<svg viewBox="0 0 200 200" xmlns="http://www.w3.org/2000/svg">
  <path fill="#FFBC0E" d="M43.7,-71.6C54,-69.6,58,-52.7,64.1,-38.3C70.2,-23.8,78.4,-11.9,74.2,-2.5C69.9,7,53.2,14,46.5,27.5C39.9,41,43.3,61.1,37.3,64.5C31.2,67.9,15.6,54.7,2.7,50C-10.3,45.4,-20.5,49.4,-28.9,47.3C-37.2,45.2,-43.5,37,-54.4,28.1C-65.3,19.2,-80.7,9.6,-86.5,-3.4C-92.4,-16.4,-88.7,-32.7,-74.8,-36.5C-61,-40.2,-37,-31.3,-22.8,-31C-8.6,-30.7,-4.3,-39,6.2,-49.7C16.7,-60.4,33.3,-73.5,43.7,-71.6Z" transform="translate(100 100)" />
</svg>
