<?xml version="1.0" standalone="no"?>
<svg viewBox="0 0 200 200" xmlns="http://www.w3.org/2000/svg">
  <path fill="#FFA500" d="M43.4,-62.5C57.6,-58.5,71.3,-48.6,74.4,-35.8C77.5,-22.9,69.9,-7,66.1,8.4C62.2,23.8,62,38.7,53.5,43.7C45.1,48.7,28.3,43.9,15,45.2C1.6,46.5,-8.2,53.9,-15.2,51.8C-22.3,49.8,-26.5,38.2,-38.6,30.2C-50.7,22.1,-70.6,17.6,-74.3,9.1C-77.9,0.7,-65.2,-11.7,-52.5,-17.6C-39.8,-23.5,-27.1,-23,-18.4,-29.5C-9.6,-36,-4.8,-49.6,4.9,-57.2C14.6,-64.9,29.2,-66.6,43.4,-62.5Z" transform="translate(100 100)" />
</svg>
